#N canvas 393 1387 2560 1397 12;
#X obj 19 21 tgl 15 0 empty empty empty 17 7 0 10 #fcfcfc #000000 #000000 0 1;
#X msg 19 41 \; pd dsp \$1;
#X obj 1544 42 loadbang;
#X floatatom 1544 129 5 0 0 0 - - - 0;
#X obj 1512 160 metro;
#X obj 1513 136 tgl 19 0 empty empty empty 0 -10 0 12 #fcfcfc #000000 #000000 0 1;
#X obj 1417 181 sel 0;
#X obj 1417 205 bng 19 250 50 0 empty empty empty 0 -10 0 12 #fcfcfc #000000 #000000;
#X obj 1512 223 bng 19 250 50 0 empty empty empty 0 -10 0 12 #fcfcfc #000000 #000000;
#X obj 1344 181 loadbang;
#X msg 1417 267 -1;
#X obj 1512 306 int 1;
#X obj 1582 335 + 1;
#X floatatom 1512 371 5 0 0 0 - - - 0;
#X obj 1512 452 + 1;
#X floatatom 1512 480 5 0 0 0 - - - 0;
#X obj 982 519 sel 1;
#X obj 1052 519 sel 2;
#X obj 982 543 bng 19 250 50 0 empty empty empty 0 -10 0 12 #fcfcfc #000000 #000000;
#X obj 982 567 s One;
#X obj 1052 543 bng 19 250 50 0 empty empty empty 0 -10 0 12 #fcfcfc #000000 #000000;
#X obj 1124 543 bng 19 250 50 0 empty empty empty 0 -10 0 12 #fcfcfc #000000 #000000;
#X obj 1194 543 bng 19 250 50 0 empty empty empty 0 -10 0 12 #fcfcfc #000000 #000000;
#X obj 1264 543 bng 19 250 50 0 empty empty empty 0 -10 0 12 #fcfcfc #000000 #000000;
#X obj 1334 543 bng 19 250 50 0 empty empty empty 0 -10 0 12 #fcfcfc #000000 #000000;
#X obj 1124 519 sel 3;
#X obj 1194 519 sel 4;
#X obj 1264 519 sel 5;
#X obj 1334 519 sel 6;
#X obj 1052 567 s Two;
#X obj 1124 567 s Three;
#X obj 1194 567 s Four;
#X obj 1264 567 s Five;
#X obj 1334 567 s Six;
#X obj 282 136 receive snare;
#X obj 61 133 receive Kick;
#X obj 1404 543 bng 19 250 50 0 empty empty empty 0 -10 0 12 #fcfcfc #000000 #000000;
#X obj 1474 543 bng 19 250 50 0 empty empty empty 0 -10 0 12 #fcfcfc #000000 #000000;
#X obj 1404 519 sel 7;
#X obj 1405 568 s Seven;
#X obj 1474 519 sel 8;
#X obj 1474 567 s Eight;
#X obj 1552 543 bng 19 250 50 0 empty empty empty 0 -10 0 12 #fcfcfc #000000 #000000;
#X obj 1622 543 bng 19 250 50 0 empty empty empty 0 -10 0 12 #fcfcfc #000000 #000000;
#X obj 1694 543 bng 19 250 50 0 empty empty empty 0 -10 0 12 #fcfcfc #000000 #000000;
#X obj 1764 543 bng 19 250 50 0 empty empty empty 0 -10 0 12 #fcfcfc #000000 #000000;
#X obj 1834 543 bng 19 250 50 0 empty empty empty 0 -10 0 12 #fcfcfc #000000 #000000;
#X obj 1904 543 bng 19 250 50 0 empty empty empty 0 -10 0 12 #fcfcfc #000000 #000000;
#X obj 1974 543 bng 19 250 50 0 empty empty empty 0 -10 0 12 #fcfcfc #000000 #000000;
#X obj 2044 543 bng 19 250 50 0 empty empty empty 0 -10 0 12 #fcfcfc #000000 #000000;
#X obj 1552 519 sel 9;
#X obj 1622 519 sel 10;
#X obj 1694 519 sel 11;
#X obj 1764 519 sel 12;
#X obj 1834 519 sel 13;
#X obj 1904 519 sel 14;
#X obj 1974 519 sel 15;
#X obj 2044 519 sel 16;
#X obj 1552 567 s Nine;
#X obj 1622 567 s Ten;
#X obj 1694 567 s Eleven;
#X obj 1764 567 s Twelve;
#X obj 1834 567 s Thirteen;
#X obj 1904 567 s Fourteen;
#X obj 1975 568 s Fifteen;
#X obj 2044 567 s Sixteen;
#X obj 1512 428 % 16;
#X obj 674 142 receive hihatc;
#X floatatom 2922 2895 5 0 0 0 - - - 0;
#X obj 873 633 receive One;
#X obj 873 657 bng 19 250 50 0 empty empty empty 0 -10 0 12 #fcfcfc #000000 #000000;
#X obj 1156 657 bng 19 250 50 0 empty empty empty 0 -10 0 12 #fcfcfc #000000 #000000;
#X obj 1256 657 bng 19 250 50 0 empty empty empty 0 -10 0 12 #fcfcfc #000000 #000000;
#X obj 1156 633 receive Four;
#X obj 1256 633 receive Five;
#X obj 1653 657 bng 19 250 50 0 empty empty empty 0 -10 0 12 #fcfcfc #000000 #000000;
#X obj 1946 657 bng 19 250 50 0 empty empty empty 0 -10 0 12 #fcfcfc #000000 #000000;
#X obj 2056 657 bng 19 250 50 0 empty empty empty 0 -10 0 12 #fcfcfc #000000 #000000;
#X obj 1652 633 receive Nine;
#X obj 1946 633 receive Twelve;
#X obj 2056 633 receive Thirteen;
#X obj 872 735 spigot;
#X obj 805 716 tgl 19 0 empty empty empty 0 -10 0 12 #fcfcfc #000000 #000000 0 1;
#X obj 872 1598 send snare;
#X obj 872 1188 send hihatc;
#X obj 872 808 send Kick;
#X obj 872 1653 receive One;
#X obj 872 1677 bng 19 250 50 0 empty empty empty 0 -10 0 12 #fcfcfc #000000 #000000;
#X obj 976 1677 bng 19 250 50 0 empty empty empty 0 -10 0 12 #fcfcfc #000000 #000000;
#X obj 976 1653 receive Four;
#X obj 1235 1677 bng 19 250 50 0 empty empty empty 0 -10 0 12 #fcfcfc #000000 #000000;
#X obj 872 1755 spigot;
#X obj 805 1736 tgl 19 0 empty empty empty 0 -10 0 12 #fcfcfc #000000 #000000 0 1;
#X obj 976 1755 spigot;
#X obj 1235 1755 spigot;
#X obj 2223 163 catch~ \$0-output;
#X obj 2223 187 /~ 5;
#X obj 2223 211 dac~ 1 2;
#X msg 61 162 0 \, 1 200;
#X obj 61 186 line~;
#X obj 61 210 sqrt~;
#X obj 61 258 -~ 0.25;
#X obj 61 282 cos~;
#X obj 61 386 throw~ \$0-output;
#X obj 61 306 lop~ 1000;
#X obj 282 160 t b b;
#X msg 282 184 1 \, 0 100;
#X obj 282 208 line~;
#X obj 282 232 pow~ 4;
#X obj 282 256 *~;
#X obj 282 280 +~;
#X obj 341 238 osc~ 200;
#X obj 430 203 line~;
#X obj 430 227 pow~ 4;
#X msg 430 179 1 \, 0 200;
#X obj 430 261 *~;
#X obj 518 195 noise~;
#X obj 518 219 hip~ 3000;
#X obj 518 243 bp~ 5000 2;
#X obj 282 344 throw~ \$0-output;
#X obj 282 304 lop~ 4000;
#X obj 674 190 line~;
#X obj 674 214 pow~ 4;
#X obj 674 238 *~;
#X obj 674 262 throw~ \$0-output;
#X obj 758 172 noise~;
#X obj 758 196 hip~ 8000;
#X obj 758 220 hip~ 8000;
#X obj 61 330 lop~ 1000;
#X obj 61 234 *~ 20;
#X floatatom 185 955 5 0 0 0 - - - 0;
#X obj 185 1010 phasor~;
#X obj 60 1135 throw~ \$0-output;
#X obj 185 925 mtof;
#X floatatom 185 894 5 0 0 0 - - - 0;
#X obj 60 1078 *~;
#X obj 59 923 vline~;
#X obj 185 1034 lop~ 1000;
#X obj 185 1058 lop~ 1000;
#X floatatom 186 1285 5 0 0 0 - - - 0;
#X obj 186 1340 phasor~;
#X obj 61 1463 throw~ \$0-output;
#X obj 186 1255 mtof;
#X floatatom 186 1224 5 0 0 0 - - - 0;
#X obj 61 1406 *~;
#X obj 60 1253 vline~;
#X obj 186 1364 lop~ 1000;
#X obj 186 1388 lop~ 1000;
#X obj 1100 1678 bng 19 250 50 0 empty empty empty 0 -10 0 12 #fcfcfc #000000 #000000;
#X obj 1100 1756 spigot;
#X obj 1100 1654 receive Five;
#X obj 1235 1653 receive Eight;
#X obj 1352 1677 bng 19 250 50 0 empty empty empty 0 -10 0 12 #fcfcfc #000000 #000000;
#X obj 1476 1677 bng 19 250 50 0 empty empty empty 0 -10 0 12 #fcfcfc #000000 #000000;
#X obj 1775 1677 bng 19 250 50 0 empty empty empty 0 -10 0 12 #fcfcfc #000000 #000000;
#X obj 1352 1755 spigot;
#X obj 1476 1755 spigot;
#X obj 1775 1755 spigot;
#X obj 1630 1678 bng 19 250 50 0 empty empty empty 0 -10 0 12 #fcfcfc #000000 #000000;
#X obj 1630 1756 spigot;
#X obj 1352 1653 receive Nine;
#X obj 1476 1653 receive Twelve;
#X obj 1630 1654 receive Thirteen;
#X obj 872 1827 send bassC_l;
#X obj 976 1828 send bassG_s;
#X obj 1100 1829 send bassG_l;
#X obj 1235 1828 send bassC_s;
#X obj 1630 1829 send bassG_l;
#X floatatom 433 959 5 0 0 0 - - - 0;
#X obj 433 1014 phasor~;
#X obj 308 1137 throw~ \$0-output;
#X obj 433 929 mtof;
#X floatatom 433 898 5 0 0 0 - - - 0;
#X obj 308 1080 *~;
#X obj 307 927 vline~;
#X obj 433 1038 lop~ 1000;
#X obj 433 1062 lop~ 1000;
#X obj 59 834 receive bassC_l;
#X obj 307 838 receive bassC_s;
#X obj 60 1172 receive bassG_l;
#X floatatom 430 1304 5 0 0 0 - - - 0;
#X obj 430 1359 phasor~;
#X obj 305 1482 throw~ \$0-output;
#X obj 430 1274 mtof;
#X floatatom 430 1243 5 0 0 0 - - - 0;
#X obj 305 1425 *~;
#X obj 304 1272 vline~;
#X obj 430 1383 lop~ 1000;
#X obj 430 1407 lop~ 1000;
#X obj 304 1191 receive bassG_s;
#X msg 59 894 1 150 \, 0 400 100;
#X msg 60 1224 1 150 \, 0 400 100;
#X msg 304 1243 1 15 \, 0 50 75;
#X msg 307 898 1 15 \, 0 50 75;
#X obj 873 1453 receive One;
#X obj 873 1477 bng 19 250 50 0 empty empty empty 0 -10 0 12 #fcfcfc #000000 #000000;
#X obj 1156 1477 bng 19 250 50 0 empty empty empty 0 -10 0 12 #fcfcfc #000000 #000000;
#X obj 1156 1453 receive Four;
#X obj 1445 1477 bng 19 250 50 0 empty empty empty 0 -10 0 12 #fcfcfc #000000 #000000;
#X obj 1445 1453 receive Seven;
#X obj 1653 1477 bng 19 250 50 0 empty empty empty 0 -10 0 12 #fcfcfc #000000 #000000;
#X obj 1946 1477 bng 19 250 50 0 empty empty empty 0 -10 0 12 #fcfcfc #000000 #000000;
#X obj 2295 1477 bng 19 250 50 0 empty empty empty 0 -10 0 12 #fcfcfc #000000 #000000;
#X obj 1652 1453 receive Nine;
#X obj 1946 1453 receive Twelve;
#X obj 2295 1453 receive Fifteen;
#X obj 872 1555 spigot;
#X obj 805 1536 tgl 19 0 empty empty empty 0 -10 0 12 #fcfcfc #000000 #000000 0 1;
#X obj 873 1043 receive One;
#X obj 873 1067 bng 19 250 50 0 empty empty empty 0 -10 0 12 #fcfcfc #000000 #000000;
#X obj 963 1067 bng 19 250 50 0 empty empty empty 0 -10 0 12 #fcfcfc #000000 #000000;
#X obj 1053 1067 bng 19 250 50 0 empty empty empty 0 -10 0 12 #fcfcfc #000000 #000000;
#X obj 1156 1067 bng 19 250 50 0 empty empty empty 0 -10 0 12 #fcfcfc #000000 #000000;
#X obj 1256 1067 bng 19 250 50 0 empty empty empty 0 -10 0 12 #fcfcfc #000000 #000000;
#X obj 1356 1067 bng 19 250 50 0 empty empty empty 0 -10 0 12 #fcfcfc #000000 #000000;
#X obj 963 1043 receive Two;
#X obj 1053 1043 receive Three;
#X obj 1156 1043 receive Four;
#X obj 1256 1043 receive Five;
#X obj 1356 1043 receive Six;
#X obj 1445 1067 bng 19 250 50 0 empty empty empty 0 -10 0 12 #fcfcfc #000000 #000000;
#X obj 1545 1067 bng 19 250 50 0 empty empty empty 0 -10 0 12 #fcfcfc #000000 #000000;
#X obj 1445 1043 receive Seven;
#X obj 1545 1043 receive Eight;
#X obj 1653 1067 bng 19 250 50 0 empty empty empty 0 -10 0 12 #fcfcfc #000000 #000000;
#X obj 1743 1067 bng 19 250 50 0 empty empty empty 0 -10 0 12 #fcfcfc #000000 #000000;
#X obj 1833 1067 bng 19 250 50 0 empty empty empty 0 -10 0 12 #fcfcfc #000000 #000000;
#X obj 1946 1067 bng 19 250 50 0 empty empty empty 0 -10 0 12 #fcfcfc #000000 #000000;
#X obj 2056 1067 bng 19 250 50 0 empty empty empty 0 -10 0 12 #fcfcfc #000000 #000000;
#X obj 2176 1067 bng 19 250 50 0 empty empty empty 0 -10 0 12 #fcfcfc #000000 #000000;
#X obj 2295 1067 bng 19 250 50 0 empty empty empty 0 -10 0 12 #fcfcfc #000000 #000000;
#X obj 2415 1067 bng 19 250 50 0 empty empty empty 0 -10 0 12 #fcfcfc #000000 #000000;
#X obj 1652 1043 receive Nine;
#X obj 1743 1043 receive Ten;
#X obj 1833 1043 receive Eleven;
#X obj 1946 1043 receive Twelve;
#X obj 2056 1043 receive Thirteen;
#X obj 2176 1043 receive Fourteen;
#X obj 2295 1043 receive Fifteen;
#X obj 2415 1043 receive Sixteen;
#X obj 872 1145 spigot;
#X obj 805 1126 tgl 19 0 empty empty empty 0 -10 0 12 #fcfcfc #000000 #000000 0 1;
#X obj 1352 1828 send bassD_l;
#X obj 1476 1828 send bassA_s;
#X floatatom 185 1645 5 0 0 0 - - - 0;
#X obj 185 1700 phasor~;
#X obj 60 1825 throw~ \$0-output;
#X obj 185 1615 mtof;
#X floatatom 185 1584 5 0 0 0 - - - 0;
#X obj 60 1768 *~;
#X obj 59 1613 vline~;
#X obj 185 1724 lop~ 1000;
#X obj 185 1748 lop~ 1000;
#X msg 59 1584 1 150 \, 0 400 100;
#X obj 59 1524 receive bassD_l;
#X floatatom 429 1638 5 0 0 0 - - - 0;
#X obj 429 1693 phasor~;
#X obj 304 1816 throw~ \$0-output;
#X obj 429 1608 mtof;
#X floatatom 429 1577 5 0 0 0 - - - 0;
#X obj 304 1759 *~;
#X obj 303 1606 vline~;
#X obj 429 1717 lop~ 1000;
#X obj 429 1741 lop~ 1000;
#X msg 303 1577 1 15 \, 0 50 75;
#X obj 303 1525 receive bassA_s;
#X obj 1775 1653 receive Fifteen;
#X obj 1775 1828 send bassD_l;
#X msg 674 166 0.75 \, 0 100;
#X floatatom 1035 209 5 0 0 0 - - - 0;
#X obj 910 357 throw~ \$0-output;
#X obj 1035 179 mtof;
#X floatatom 1035 148 5 0 0 0 - - - 0;
#X obj 910 300 *~;
#X obj 909 217 vline~;
#X obj 1035 282 lop~ 1000;
#X obj 1035 258 bp~ 5000;
#X obj 1403 389 % 32;
#X obj 1403 413 + 1;
#X obj 873 853 receive One;
#X obj 873 877 bng 19 250 50 0 empty empty empty 0 -10 0 12 #fcfcfc #000000 #000000;
#X obj 963 877 bng 19 250 50 0 empty empty empty 0 -10 0 12 #fcfcfc #000000 #000000;
#X obj 1053 877 bng 19 250 50 0 empty empty empty 0 -10 0 12 #fcfcfc #000000 #000000;
#X obj 1156 877 bng 19 250 50 0 empty empty empty 0 -10 0 12 #fcfcfc #000000 #000000;
#X obj 1256 877 bng 19 250 50 0 empty empty empty 0 -10 0 12 #fcfcfc #000000 #000000;
#X obj 963 853 receive Two;
#X obj 1053 853 receive Three;
#X obj 1156 853 receive Four;
#X obj 1256 853 receive Five;
#X obj 1653 877 bng 19 250 50 0 empty empty empty 0 -10 0 12 #fcfcfc #000000 #000000;
#X obj 1743 877 bng 19 250 50 0 empty empty empty 0 -10 0 12 #fcfcfc #000000 #000000;
#X obj 1833 877 bng 19 250 50 0 empty empty empty 0 -10 0 12 #fcfcfc #000000 #000000;
#X obj 1946 877 bng 19 250 50 0 empty empty empty 0 -10 0 12 #fcfcfc #000000 #000000;
#X obj 2056 877 bng 19 250 50 0 empty empty empty 0 -10 0 12 #fcfcfc #000000 #000000;
#X obj 2176 877 bng 19 250 50 0 empty empty empty 0 -10 0 12 #fcfcfc #000000 #000000;
#X obj 2295 877 bng 19 250 50 0 empty empty empty 0 -10 0 12 #fcfcfc #000000 #000000;
#X obj 2415 877 bng 19 250 50 0 empty empty empty 0 -10 0 12 #fcfcfc #000000 #000000;
#X obj 1652 853 receive Nine;
#X obj 1743 853 receive Ten;
#X obj 1833 853 receive Eleven;
#X obj 1946 853 receive Twelve;
#X obj 2056 853 receive Thirteen;
#X obj 2176 853 receive Fourteen;
#X obj 2295 853 receive Fifteen;
#X obj 2415 853 receive Sixteen;
#X obj 872 935 spigot;
#X obj 805 916 tgl 19 1 empty empty empty 0 -10 0 12 #fcfcfc #000000 #000000 1 1;
#X msg 185 864 36;
#X msg 433 865 36;
#X msg 186 1198 31;
#X msg 430 1215 31;
#X msg 186 1554 38;
#X msg 429 1548 42;
#X obj 1035 234 phasor~;
#X floatatom 170 579 5 0 0 0 - - - 0;
#X obj 45 727 throw~ \$0-output;
#X obj 170 549 mtof;
#X floatatom 170 518 5 0 0 0 - - - 0;
#X obj 45 670 *~;
#X obj 44 587 vline~;
#X obj 170 652 lop~ 1000;
#X obj 170 628 bp~ 5000;
#X msg 44 518 0.8 15 \, 0 50 75;
#X msg 170 489 60;
#X obj 170 604 phasor~;
#X msg 215 489 58;
#X msg 260 488 57;
#X msg 310 487 55;
#X obj 1313 955 s G2;
#X obj 1369 954 s A2;
#X obj 1428 954 s Bb2;
#X obj 1481 954 s C2;
#X obj 170 452 r C2;
#X obj 215 452 r Bb2;
#X obj 260 451 r A2;
#X obj 310 450 r G2;
#X obj 963 1917 bng 19 250 50 0 empty empty empty 0 -10 0 12 #fcfcfc #000000 #000000;
#X obj 1156 1917 bng 19 250 50 0 empty empty empty 0 -10 0 12 #fcfcfc #000000 #000000;
#X obj 1356 1917 bng 19 250 50 0 empty empty empty 0 -10 0 12 #fcfcfc #000000 #000000;
#X obj 963 1893 receive Two;
#X obj 1156 1893 receive Four;
#X obj 1356 1893 receive Six;
#X obj 1545 1917 bng 19 250 50 0 empty empty empty 0 -10 0 12 #fcfcfc #000000 #000000;
#X obj 1545 1893 receive Eight;
#X obj 1743 1917 bng 19 250 50 0 empty empty empty 0 -10 0 12 #fcfcfc #000000 #000000;
#X obj 1946 1917 bng 19 250 50 0 empty empty empty 0 -10 0 12 #fcfcfc #000000 #000000;
#X obj 2176 1917 bng 19 250 50 0 empty empty empty 0 -10 0 12 #fcfcfc #000000 #000000;
#X obj 2415 1917 bng 19 250 50 0 empty empty empty 0 -10 0 12 #fcfcfc #000000 #000000;
#X obj 1743 1893 receive Ten;
#X obj 1946 1893 receive Twelve;
#X obj 2176 1893 receive Fourteen;
#X obj 2415 1893 receive Sixteen;
#X obj 872 1995 spigot;
#X obj 805 1976 tgl 19 0 empty empty empty 0 -10 0 12 #fcfcfc #000000 #000000 0 1;
#X obj 872 978 send melody;
#X obj 44 458 receive melody;
#X obj 909 88 receive accent;
#X obj 872 2038 send accent;
#X msg 909 148 0.8 \, 0 50 75;
#X msg 1544 104 300;
#X obj 872 1893 receive One;
#X obj 872 1917 bng 19 250 50 0 empty empty empty 0 -10 0 12 #fcfcfc #000000 #000000;
#X obj 872 1388 send melody2;
#X floatatom 533 568 5 0 0 0 - - - 0;
#X obj 408 766 throw~ \$0-output;
#X obj 533 538 mtof;
#X floatatom 533 507 5 0 0 0 - - - 0;
#X obj 408 659 *~;
#X obj 407 576 vline~;
#X obj 533 593 phasor~;
#X obj 407 447 receive melody2;
#X obj 872 1232 receive One;
#X obj 872 1256 bng 19 250 50 0 empty empty empty 0 -10 0 12 #fcfcfc #000000 #000000;
#X obj 1255 1256 bng 19 250 50 0 empty empty empty 0 -10 0 12 #fcfcfc #000000 #000000;
#X obj 1255 1232 receive Five;
#X obj 1652 1256 bng 19 250 50 0 empty empty empty 0 -10 0 12 #fcfcfc #000000 #000000;
#X obj 2055 1256 bng 19 250 50 0 empty empty empty 0 -10 0 12 #fcfcfc #000000 #000000;
#X obj 1651 1232 receive Nine;
#X obj 2055 1232 receive Thirteen;
#X obj 872 1334 spigot;
#X obj 805 1315 tgl 19 0 empty empty empty 0 -10 0 12 #fcfcfc #000000 #000000 0 1;
#X obj 533 441 r C1;
#X obj 578 441 r Bb1;
#X obj 623 440 r A1;
#X obj 1274 1343 s C1;
#X obj 1340 1343 s Bb1;
#X obj 1403 1343 s A1;
#X obj 673 439 r Ab1;
#X obj 1465 1343 s Ab1;
#X obj 533 617 bp~ 3000;
#X msg 533 478 48;
#X msg 578 478 46;
#X msg 623 477 45;
#X msg 673 476 44;
#X msg 407 507 0.1 15 \, 0 200 1000;
#X obj 408 683 expr~ tanh($v1);
#X obj 408 737 *~;
#X obj 450 713 hsl 162 19 0 2 0 0 empty empty empty -2 -10 0 12 #fcfcfc #000000 #000000 0 1;
#X text 1215 61 This is the main sequencer Each time the metronome is triggered it adds one to the number value which is then sent through a modulus so that the 16 way selector repeats every 16 counts.;
#X text 237 57 Here are all of the voices included in this patch \, there is a kick drum \, snare \, hihat \, accent(pseudo clave) \, a series of bass notes \, and two different melodies.;
#X text 725 639 Toggle the mute button here to turn on or off a specific voice;
#X text 2117 120 This is our main out;
#X text 712 541 I personally think that the voices should be unmuted in this order \, from top to bottom;
#X text 766 709 MUTE KICK;
#X text 756 1120 MUTE HIHAT;
#X text 752 910 MUTE MELODY;
#X text 759 1532 MUTE SNARE;
#X text 766 1731 MUTE BASS;
#X text 760 1973 MUTE CLAVE;
#X text 746 1310 MUTE MELODY2;
#X msg 1035 119 84;
#X connect 0 0 1 0;
#X connect 2 0 359 0;
#X connect 3 0 4 1;
#X connect 4 0 8 0;
#X connect 5 0 4 0;
#X connect 5 0 6 0;
#X connect 6 0 7 0;
#X connect 7 0 10 0;
#X connect 8 0 11 0;
#X connect 9 0 7 0;
#X connect 10 0 11 0;
#X connect 11 0 12 0;
#X connect 11 0 13 0;
#X connect 12 0 11 1;
#X connect 13 0 66 0;
#X connect 13 0 277 0;
#X connect 14 0 15 0;
#X connect 15 0 16 0;
#X connect 15 0 17 0;
#X connect 15 0 25 0;
#X connect 15 0 26 0;
#X connect 15 0 27 0;
#X connect 15 0 28 0;
#X connect 15 0 38 0;
#X connect 15 0 40 0;
#X connect 15 0 50 0;
#X connect 15 0 51 0;
#X connect 15 0 52 0;
#X connect 15 0 53 0;
#X connect 15 0 54 0;
#X connect 15 0 55 0;
#X connect 15 0 56 0;
#X connect 15 0 57 0;
#X connect 16 0 18 0;
#X connect 17 0 20 0;
#X connect 18 0 19 0;
#X connect 20 0 29 0;
#X connect 21 0 30 0;
#X connect 22 0 31 0;
#X connect 23 0 32 0;
#X connect 24 0 33 0;
#X connect 25 0 21 0;
#X connect 26 0 22 0;
#X connect 27 0 23 0;
#X connect 28 0 24 0;
#X connect 34 0 105 0;
#X connect 35 0 98 0;
#X connect 36 0 39 0;
#X connect 37 0 41 0;
#X connect 38 0 36 0;
#X connect 40 0 37 0;
#X connect 42 0 58 0;
#X connect 43 0 59 0;
#X connect 44 0 60 0;
#X connect 45 0 61 0;
#X connect 46 0 62 0;
#X connect 47 0 63 0;
#X connect 48 0 64 0;
#X connect 49 0 65 0;
#X connect 50 0 42 0;
#X connect 51 0 43 0;
#X connect 52 0 44 0;
#X connect 53 0 45 0;
#X connect 54 0 46 0;
#X connect 55 0 47 0;
#X connect 56 0 48 0;
#X connect 57 0 49 0;
#X connect 66 0 14 0;
#X connect 67 0 268 0;
#X connect 69 0 70 0;
#X connect 70 0 81 0;
#X connect 71 0 81 0;
#X connect 72 0 81 0;
#X connect 73 0 71 0;
#X connect 74 0 72 0;
#X connect 75 0 81 0;
#X connect 76 0 81 0;
#X connect 77 0 81 0;
#X connect 78 0 75 0;
#X connect 79 0 76 0;
#X connect 80 0 77 0;
#X connect 81 0 85 0;
#X connect 82 0 81 1;
#X connect 86 0 87 0;
#X connect 87 0 91 0;
#X connect 88 0 93 0;
#X connect 89 0 88 0;
#X connect 90 0 94 0;
#X connect 91 0 163 0;
#X connect 92 0 91 1;
#X connect 92 0 93 1;
#X connect 92 0 94 1;
#X connect 92 0 149 1;
#X connect 92 0 155 1;
#X connect 92 0 156 1;
#X connect 92 0 159 1;
#X connect 92 0 157 1;
#X connect 93 0 164 0;
#X connect 94 0 166 0;
#X connect 95 0 96 0;
#X connect 96 0 97 0;
#X connect 96 0 97 1;
#X connect 98 0 99 0;
#X connect 99 0 100 0;
#X connect 100 0 129 0;
#X connect 101 0 102 0;
#X connect 102 0 104 0;
#X connect 104 0 128 0;
#X connect 105 0 106 0;
#X connect 105 1 114 0;
#X connect 106 0 107 0;
#X connect 107 0 108 0;
#X connect 108 0 109 0;
#X connect 109 0 110 0;
#X connect 110 0 120 0;
#X connect 111 0 109 1;
#X connect 112 0 113 0;
#X connect 113 0 115 0;
#X connect 114 0 112 0;
#X connect 115 0 110 1;
#X connect 116 0 117 0;
#X connect 117 0 118 0;
#X connect 118 0 115 1;
#X connect 120 0 119 0;
#X connect 121 0 122 0;
#X connect 122 0 123 0;
#X connect 123 0 124 0;
#X connect 125 0 126 0;
#X connect 126 0 127 0;
#X connect 127 0 123 1;
#X connect 128 0 103 0;
#X connect 129 0 101 0;
#X connect 130 0 131 0;
#X connect 131 0 137 0;
#X connect 133 0 130 0;
#X connect 134 0 133 0;
#X connect 135 0 132 0;
#X connect 136 0 135 0;
#X connect 137 0 138 0;
#X connect 138 0 135 1;
#X connect 139 0 140 0;
#X connect 140 0 146 0;
#X connect 142 0 139 0;
#X connect 143 0 142 0;
#X connect 144 0 141 0;
#X connect 145 0 144 0;
#X connect 146 0 147 0;
#X connect 147 0 144 1;
#X connect 148 0 149 0;
#X connect 149 0 165 0;
#X connect 150 0 148 0;
#X connect 151 0 90 0;
#X connect 152 0 155 0;
#X connect 153 0 156 0;
#X connect 154 0 157 0;
#X connect 155 0 242 0;
#X connect 156 0 243 0;
#X connect 157 0 267 0;
#X connect 158 0 159 0;
#X connect 159 0 167 0;
#X connect 160 0 152 0;
#X connect 161 0 153 0;
#X connect 162 0 158 0;
#X connect 168 0 169 0;
#X connect 169 0 175 0;
#X connect 171 0 168 0;
#X connect 172 0 171 0;
#X connect 173 0 170 0;
#X connect 174 0 173 0;
#X connect 175 0 176 0;
#X connect 176 0 173 1;
#X connect 177 0 190 0;
#X connect 177 0 307 0;
#X connect 178 0 193 0;
#X connect 178 0 308 0;
#X connect 179 0 191 0;
#X connect 179 0 309 0;
#X connect 180 0 181 0;
#X connect 181 0 187 0;
#X connect 183 0 180 0;
#X connect 184 0 183 0;
#X connect 185 0 182 0;
#X connect 186 0 185 0;
#X connect 187 0 188 0;
#X connect 188 0 185 1;
#X connect 189 0 192 0;
#X connect 189 0 310 0;
#X connect 190 0 136 0;
#X connect 191 0 145 0;
#X connect 192 0 186 0;
#X connect 193 0 174 0;
#X connect 194 0 195 0;
#X connect 195 0 206 0;
#X connect 196 0 206 0;
#X connect 197 0 196 0;
#X connect 198 0 206 0;
#X connect 199 0 198 0;
#X connect 200 0 206 0;
#X connect 201 0 206 0;
#X connect 202 0 206 0;
#X connect 203 0 200 0;
#X connect 204 0 201 0;
#X connect 205 0 202 0;
#X connect 206 0 83 0;
#X connect 207 0 206 1;
#X connect 208 0 209 0;
#X connect 209 0 240 0;
#X connect 210 0 240 0;
#X connect 211 0 240 0;
#X connect 212 0 240 0;
#X connect 213 0 240 0;
#X connect 214 0 240 0;
#X connect 215 0 210 0;
#X connect 216 0 211 0;
#X connect 217 0 212 0;
#X connect 218 0 213 0;
#X connect 219 0 214 0;
#X connect 220 0 240 0;
#X connect 221 0 240 0;
#X connect 222 0 220 0;
#X connect 223 0 221 0;
#X connect 224 0 240 0;
#X connect 225 0 240 0;
#X connect 226 0 240 0;
#X connect 227 0 240 0;
#X connect 228 0 240 0;
#X connect 229 0 240 0;
#X connect 230 0 240 0;
#X connect 231 0 240 0;
#X connect 232 0 224 0;
#X connect 233 0 225 0;
#X connect 234 0 226 0;
#X connect 235 0 227 0;
#X connect 236 0 228 0;
#X connect 237 0 229 0;
#X connect 238 0 230 0;
#X connect 239 0 231 0;
#X connect 240 0 84 0;
#X connect 241 0 240 1;
#X connect 244 0 245 0;
#X connect 245 0 251 0;
#X connect 247 0 244 0;
#X connect 248 0 247 0;
#X connect 249 0 246 0;
#X connect 250 0 249 0;
#X connect 251 0 252 0;
#X connect 252 0 249 1;
#X connect 253 0 250 0;
#X connect 254 0 253 0;
#X connect 254 0 311 0;
#X connect 255 0 256 0;
#X connect 256 0 262 0;
#X connect 258 0 255 0;
#X connect 259 0 258 0;
#X connect 260 0 257 0;
#X connect 261 0 260 0;
#X connect 262 0 263 0;
#X connect 263 0 260 1;
#X connect 264 0 261 0;
#X connect 265 0 264 0;
#X connect 265 0 312 0;
#X connect 266 0 154 0;
#X connect 268 0 121 0;
#X connect 269 0 313 0;
#X connect 271 0 269 0;
#X connect 272 0 271 0;
#X connect 273 0 270 0;
#X connect 274 0 273 0;
#X connect 275 0 273 1;
#X connect 276 0 275 0;
#X connect 277 0 278 0;
#X connect 279 0 280 0;
#X connect 280 0 305 0;
#X connect 280 0 331 0;
#X connect 281 0 305 0;
#X connect 281 0 330 0;
#X connect 282 0 305 0;
#X connect 282 0 329 0;
#X connect 283 0 305 0;
#X connect 283 0 328 0;
#X connect 284 0 305 0;
#X connect 285 0 281 0;
#X connect 286 0 282 0;
#X connect 287 0 283 0;
#X connect 288 0 284 0;
#X connect 289 0 305 0;
#X connect 289 0 331 0;
#X connect 290 0 305 0;
#X connect 290 0 330 0;
#X connect 291 0 305 0;
#X connect 291 0 329 0;
#X connect 292 0 305 0;
#X connect 292 0 328 0;
#X connect 293 0 305 0;
#X connect 294 0 305 0;
#X connect 295 0 305 0;
#X connect 295 0 329 0;
#X connect 296 0 305 0;
#X connect 296 0 330 0;
#X connect 297 0 289 0;
#X connect 298 0 290 0;
#X connect 299 0 291 0;
#X connect 300 0 292 0;
#X connect 301 0 293 0;
#X connect 302 0 294 0;
#X connect 303 0 295 0;
#X connect 304 0 296 0;
#X connect 305 0 354 0;
#X connect 306 0 305 1;
#X connect 307 0 134 0;
#X connect 308 0 172 0;
#X connect 309 0 143 0;
#X connect 310 0 184 0;
#X connect 311 0 248 0;
#X connect 312 0 259 0;
#X connect 313 0 276 0;
#X connect 314 0 324 0;
#X connect 316 0 314 0;
#X connect 317 0 316 0;
#X connect 318 0 315 0;
#X connect 319 0 318 0;
#X connect 320 0 318 1;
#X connect 321 0 320 0;
#X connect 322 0 319 0;
#X connect 323 0 317 0;
#X connect 324 0 321 0;
#X connect 325 0 317 0;
#X connect 326 0 317 0;
#X connect 327 0 317 0;
#X connect 332 0 323 0;
#X connect 333 0 325 0;
#X connect 334 0 326 0;
#X connect 335 0 327 0;
#X connect 336 0 352 0;
#X connect 337 0 352 0;
#X connect 338 0 352 0;
#X connect 339 0 336 0;
#X connect 340 0 337 0;
#X connect 341 0 338 0;
#X connect 342 0 352 0;
#X connect 343 0 342 0;
#X connect 344 0 352 0;
#X connect 345 0 352 0;
#X connect 346 0 352 0;
#X connect 347 0 352 0;
#X connect 348 0 344 0;
#X connect 349 0 345 0;
#X connect 350 0 346 0;
#X connect 351 0 347 0;
#X connect 352 0 357 0;
#X connect 353 0 352 1;
#X connect 355 0 322 0;
#X connect 356 0 358 0;
#X connect 356 0 410 0;
#X connect 358 0 274 0;
#X connect 359 0 3 0;
#X connect 360 0 361 0;
#X connect 361 0 352 0;
#X connect 363 0 369 0;
#X connect 365 0 363 0;
#X connect 366 0 365 0;
#X connect 367 0 395 0;
#X connect 368 0 367 0;
#X connect 369 0 389 0;
#X connect 370 0 394 0;
#X connect 371 0 372 0;
#X connect 372 0 379 0;
#X connect 372 0 384 0;
#X connect 373 0 379 0;
#X connect 373 0 385 0;
#X connect 374 0 373 0;
#X connect 375 0 379 0;
#X connect 375 0 386 0;
#X connect 376 0 379 0;
#X connect 376 0 388 0;
#X connect 377 0 375 0;
#X connect 378 0 376 0;
#X connect 379 0 362 0;
#X connect 380 0 379 1;
#X connect 381 0 390 0;
#X connect 382 0 391 0;
#X connect 383 0 392 0;
#X connect 387 0 393 0;
#X connect 389 0 367 1;
#X connect 390 0 366 0;
#X connect 391 0 366 0;
#X connect 392 0 366 0;
#X connect 393 0 366 0;
#X connect 394 0 368 0;
#X connect 395 0 396 0;
#X connect 396 0 364 0;
#X connect 397 0 396 1;
#X connect 410 0 272 0;
