#N canvas 393 1387 2560 1397 12;
#X obj 19 21 tgl 15 0 empty empty empty 17 7 0 10 #fcfcfc #000000 #000000 0 1;
#X msg 19 41 \; pd dsp \$1;
#X obj 1544 42 loadbang;
#X msg 1544 104 375;
#X floatatom 1544 129 5 0 0 0 - - - 0;
#X obj 1512 160 metro;
#X obj 1513 136 tgl 19 0 empty empty empty 0 -10 0 12 #fcfcfc #000000 #000000 0 1;
#X obj 1417 181 sel 0;
#X obj 1417 205 bng 19 250 50 0 empty empty empty 0 -10 0 12 #fcfcfc #000000 #000000;
#X obj 1512 223 bng 19 250 50 0 empty empty empty 0 -10 0 12 #fcfcfc #000000 #000000;
#X obj 1344 181 loadbang;
#X msg 1417 267 -1;
#X obj 1512 306 int 1;
#X obj 1582 335 + 1;
#X floatatom 1512 371 5 0 0 0 - - - 0;
#X obj 1512 452 + 1;
#X floatatom 1512 480 5 0 0 0 - - - 0;
#X obj 982 519 sel 1;
#X obj 1052 519 sel 2;
#X obj 982 543 bng 19 250 50 0 empty empty empty 0 -10 0 12 #fcfcfc #000000 #000000;
#X obj 982 567 s One;
#X obj 1052 543 bng 19 250 50 0 empty empty empty 0 -10 0 12 #fcfcfc #000000 #000000;
#X obj 1124 543 bng 19 250 50 0 empty empty empty 0 -10 0 12 #fcfcfc #000000 #000000;
#X obj 1194 543 bng 19 250 50 0 empty empty empty 0 -10 0 12 #fcfcfc #000000 #000000;
#X obj 1264 543 bng 19 250 50 0 empty empty empty 0 -10 0 12 #fcfcfc #000000 #000000;
#X obj 1334 543 bng 19 250 50 0 empty empty empty 0 -10 0 12 #fcfcfc #000000 #000000;
#X obj 1124 519 sel 3;
#X obj 1194 519 sel 4;
#X obj 1264 519 sel 5;
#X obj 1334 519 sel 6;
#X obj 1052 567 s Two;
#X obj 1124 567 s Three;
#X obj 1194 567 s Four;
#X obj 1264 567 s Five;
#X obj 1334 567 s Six;
#N canvas 0 50 450 250 (subpatch) 0;
#X array snare 20988 float 2;
#X coords 0 1 20988 -1 200 140 1 0 0;
#X restore 466 178 graph;
#X obj 502 346 receive snare;
#X obj 151 363 receive Kick;
#N canvas 0 50 450 250 (subpatch) 0;
#X array kick 13674 float 2;
#X coords 0 1 13674 -1 200 140 1;
#X restore 134 186 graph;
#X obj 1404 543 bng 19 250 50 0 empty empty empty 0 -10 0 12 #fcfcfc #000000 #000000;
#X obj 1474 543 bng 19 250 50 0 empty empty empty 0 -10 0 12 #fcfcfc #000000 #000000;
#X obj 1404 519 sel 7;
#X obj 1405 568 s Seven;
#X obj 1474 519 sel 8;
#X obj 1474 567 s Eight;
#X obj 1552 543 bng 19 250 50 0 empty empty empty 0 -10 0 12 #fcfcfc #000000 #000000;
#X obj 1622 543 bng 19 250 50 0 empty empty empty 0 -10 0 12 #fcfcfc #000000 #000000;
#X obj 1694 543 bng 19 250 50 0 empty empty empty 0 -10 0 12 #fcfcfc #000000 #000000;
#X obj 1764 543 bng 19 250 50 0 empty empty empty 0 -10 0 12 #fcfcfc #000000 #000000;
#X obj 1834 543 bng 19 250 50 0 empty empty empty 0 -10 0 12 #fcfcfc #000000 #000000;
#X obj 1904 543 bng 19 250 50 0 empty empty empty 0 -10 0 12 #fcfcfc #000000 #000000;
#X obj 1974 543 bng 19 250 50 0 empty empty empty 0 -10 0 12 #fcfcfc #000000 #000000;
#X obj 2044 543 bng 19 250 50 0 empty empty empty 0 -10 0 12 #fcfcfc #000000 #000000;
#X obj 1552 519 sel 9;
#X obj 1622 519 sel 10;
#X obj 1694 519 sel 11;
#X obj 1764 519 sel 12;
#X obj 1834 519 sel 13;
#X obj 1904 519 sel 14;
#X obj 1974 519 sel 15;
#X obj 2044 519 sel 16;
#X obj 1552 567 s Nine;
#X obj 1622 567 s Ten;
#X obj 1694 567 s Eleven;
#X obj 1764 567 s Twelve;
#X obj 1834 567 s Thirteen;
#X obj 1904 567 s Fourteen;
#X obj 1975 568 s Fifteen;
#X obj 2044 567 s Sixteen;
#X obj 1512 428 % 16;
#N canvas 0 50 450 250 (subpatch) 0;
#X array hihatc 8972 float 2;
#X coords 0 1 8972 -1 200 140 1 0 0;
#X restore 132 684 graph;
#X obj 128 874 receive hihatc;
#X floatatom 2922 2895 5 0 0 0 - - - 0;
#X obj 873 633 receive One;
#X obj 873 657 bng 19 250 50 0 empty empty empty 0 -10 0 12 #fcfcfc #000000 #000000;
#X obj 1156 657 bng 19 250 50 0 empty empty empty 0 -10 0 12 #fcfcfc #000000 #000000;
#X obj 1256 657 bng 19 250 50 0 empty empty empty 0 -10 0 12 #fcfcfc #000000 #000000;
#X obj 1156 633 receive Four;
#X obj 1256 633 receive Five;
#X obj 1653 657 bng 19 250 50 0 empty empty empty 0 -10 0 12 #fcfcfc #000000 #000000;
#X obj 1946 657 bng 19 250 50 0 empty empty empty 0 -10 0 12 #fcfcfc #000000 #000000;
#X obj 2056 657 bng 19 250 50 0 empty empty empty 0 -10 0 12 #fcfcfc #000000 #000000;
#X obj 1652 633 receive Nine;
#X obj 1946 633 receive Twelve;
#X obj 2056 633 receive Thirteen;
#X obj 872 735 spigot;
#X obj 805 716 tgl 19 0 empty empty empty 0 -10 0 12 #fcfcfc #000000 #000000 0 1;
#X text 763 719 MUTE;
#X obj 872 1018 send snare;
#X obj 872 1218 send hihatc;
#X obj 872 808 send Kick;
#N canvas 0 50 450 250 (subpatch) 0;
#X array claves 22514 float 2;
#X coords 0 1 22514 -1 200 140 1 0 0;
#X restore 489 674 graph;
#X obj 872 1593 receive One;
#X obj 872 1617 bng 19 250 50 0 empty empty empty 0 -10 0 12 #fcfcfc #000000 #000000;
#X obj 976 1617 bng 19 250 50 0 empty empty empty 0 -10 0 12 #fcfcfc #000000 #000000;
#X obj 976 1593 receive Four;
#X obj 1235 1617 bng 19 250 50 0 empty empty empty 0 -10 0 12 #fcfcfc #000000 #000000;
#X obj 872 1695 spigot;
#X obj 805 1676 tgl 19 0 empty empty empty 0 -10 0 12 #fcfcfc #000000 #000000 0 1;
#X text 763 1679 MUTE;
#X obj 976 1695 spigot;
#X obj 1235 1695 spigot;
#X obj 1765 145 catch~ \$0-output;
#X obj 1765 169 /~ 5;
#X obj 1765 193 dac~ 1 2;
#X obj 1769 295 tgl 19 0 empty empty empty 0 -10 0 12 #fcfcfc #000000 #000000 0 1;
#X obj 1769 319 metro 200;
#X obj 1769 343 tabwrite~ \$0-scope;
#X msg 151 392 0 \, 1 200;
#X obj 151 416 line~;
#X obj 151 440 sqrt~;
#X obj 151 488 -~ 0.25;
#X obj 151 512 cos~;
#X obj 151 616 throw~ \$0-output;
#X obj 151 536 lop~ 1000;
#X obj 502 370 t b b;
#X msg 502 394 1 \, 0 100;
#X obj 502 418 line~;
#X obj 502 442 pow~ 4;
#X obj 502 466 *~;
#X obj 502 490 +~;
#X obj 561 448 osc~ 200;
#X obj 650 413 line~;
#X obj 650 437 pow~ 4;
#X msg 650 389 1 \, 0 200;
#X obj 650 471 *~;
#X obj 738 405 noise~;
#X obj 738 429 hip~ 3000;
#X obj 738 453 bp~ 5000 2;
#X obj 502 554 throw~ \$0-output;
#X obj 502 514 lop~ 4000;
#X obj 128 922 line~;
#X obj 128 946 pow~ 4;
#X obj 128 970 *~;
#X obj 128 994 throw~ \$0-output;
#X obj 212 904 noise~;
#X obj 212 928 hip~ 8000;
#X obj 212 952 hip~ 8000;
#X obj 151 560 lop~ 1000;
#X obj 151 464 *~ 20;
#X floatatom 285 1308 5 0 0 0 - - - 0;
#X obj 285 1363 phasor~;
#X obj 160 1488 throw~ \$0-output;
#X obj 285 1278 mtof;
#X floatatom 285 1247 5 0 0 0 - - - 0;
#X obj 160 1431 *~;
#X obj 159 1276 vline~;
#X obj 285 1387 lop~ 1000;
#X obj 285 1411 lop~ 1000;
#X floatatom 286 1638 5 0 0 0 - - - 0;
#X obj 286 1693 phasor~;
#X obj 161 1816 throw~ \$0-output;
#X obj 286 1608 mtof;
#X floatatom 286 1577 5 0 0 0 - - - 0;
#X obj 161 1759 *~;
#X obj 160 1606 vline~;
#X obj 286 1717 lop~ 1000;
#X obj 286 1741 lop~ 1000;
#X obj 1100 1618 bng 19 250 50 0 empty empty empty 0 -10 0 12 #fcfcfc #000000 #000000;
#X obj 1100 1696 spigot;
#X obj 1100 1594 receive Five;
#X obj 1235 1593 receive Eight;
#X obj 1352 1617 bng 19 250 50 0 empty empty empty 0 -10 0 12 #fcfcfc #000000 #000000;
#X obj 1476 1617 bng 19 250 50 0 empty empty empty 0 -10 0 12 #fcfcfc #000000 #000000;
#X obj 1775 1617 bng 19 250 50 0 empty empty empty 0 -10 0 12 #fcfcfc #000000 #000000;
#X obj 1352 1695 spigot;
#X obj 1476 1695 spigot;
#X obj 1775 1695 spigot;
#X obj 1630 1618 bng 19 250 50 0 empty empty empty 0 -10 0 12 #fcfcfc #000000 #000000;
#X obj 1630 1696 spigot;
#X obj 1352 1593 receive Nine;
#X obj 1476 1593 receive Twelve;
#X obj 1630 1594 receive Thirteen;
#X obj 872 1767 send bassC_l;
#X obj 976 1768 send bassG_s;
#X obj 1100 1769 send bassG_l;
#X obj 1235 1768 send bassC_s;
#X obj 1630 1769 send bassG_l;
#X floatatom 653 1302 5 0 0 0 - - - 0;
#X obj 653 1357 phasor~;
#X obj 528 1480 throw~ \$0-output;
#X obj 653 1272 mtof;
#X floatatom 653 1241 5 0 0 0 - - - 0;
#X obj 528 1423 *~;
#X obj 527 1270 vline~;
#X obj 653 1381 lop~ 1000;
#X obj 653 1405 lop~ 1000;
#X obj 159 1187 receive bassC_l;
#X obj 527 1181 receive bassC_s;
#X obj 160 1525 receive bassG_l;
#X floatatom 650 1647 5 0 0 0 - - - 0;
#X obj 650 1702 phasor~;
#X obj 525 1825 throw~ \$0-output;
#X obj 650 1617 mtof;
#X floatatom 650 1586 5 0 0 0 - - - 0;
#X obj 525 1768 *~;
#X obj 524 1615 vline~;
#X obj 650 1726 lop~ 1000;
#X obj 650 1750 lop~ 1000;
#X obj 524 1534 receive bassG_s;
#X msg 159 1247 1 150 \, 0 400 100;
#X msg 160 1577 1 150 \, 0 400 100;
#X msg 524 1586 1 15 \, 0 50 75;
#X msg 527 1241 1 15 \, 0 50 75;
#X obj 873 873 receive One;
#X obj 873 897 bng 19 250 50 0 empty empty empty 0 -10 0 12 #fcfcfc #000000 #000000;
#X obj 1156 897 bng 19 250 50 0 empty empty empty 0 -10 0 12 #fcfcfc #000000 #000000;
#X obj 1156 873 receive Four;
#X obj 1445 897 bng 19 250 50 0 empty empty empty 0 -10 0 12 #fcfcfc #000000 #000000;
#X obj 1445 873 receive Seven;
#X obj 1653 897 bng 19 250 50 0 empty empty empty 0 -10 0 12 #fcfcfc #000000 #000000;
#X obj 1946 897 bng 19 250 50 0 empty empty empty 0 -10 0 12 #fcfcfc #000000 #000000;
#X obj 2295 897 bng 19 250 50 0 empty empty empty 0 -10 0 12 #fcfcfc #000000 #000000;
#X obj 1652 873 receive Nine;
#X obj 1946 873 receive Twelve;
#X obj 2295 873 receive Fifteen;
#X obj 872 975 spigot;
#X obj 805 956 tgl 19 0 empty empty empty 0 -10 0 12 #fcfcfc #000000 #000000 0 1;
#X text 763 959 MUTE;
#X obj 873 1073 receive One;
#X obj 873 1097 bng 19 250 50 0 empty empty empty 0 -10 0 12 #fcfcfc #000000 #000000;
#X obj 963 1097 bng 19 250 50 0 empty empty empty 0 -10 0 12 #fcfcfc #000000 #000000;
#X obj 1053 1097 bng 19 250 50 0 empty empty empty 0 -10 0 12 #fcfcfc #000000 #000000;
#X obj 1156 1097 bng 19 250 50 0 empty empty empty 0 -10 0 12 #fcfcfc #000000 #000000;
#X obj 1256 1097 bng 19 250 50 0 empty empty empty 0 -10 0 12 #fcfcfc #000000 #000000;
#X obj 1356 1097 bng 19 250 50 0 empty empty empty 0 -10 0 12 #fcfcfc #000000 #000000;
#X obj 963 1073 receive Two;
#X obj 1053 1073 receive Three;
#X obj 1156 1073 receive Four;
#X obj 1256 1073 receive Five;
#X obj 1356 1073 receive Six;
#X obj 1445 1097 bng 19 250 50 0 empty empty empty 0 -10 0 12 #fcfcfc #000000 #000000;
#X obj 1545 1097 bng 19 250 50 0 empty empty empty 0 -10 0 12 #fcfcfc #000000 #000000;
#X obj 1445 1073 receive Seven;
#X obj 1545 1073 receive Eight;
#X obj 1653 1097 bng 19 250 50 0 empty empty empty 0 -10 0 12 #fcfcfc #000000 #000000;
#X obj 1743 1097 bng 19 250 50 0 empty empty empty 0 -10 0 12 #fcfcfc #000000 #000000;
#X obj 1833 1097 bng 19 250 50 0 empty empty empty 0 -10 0 12 #fcfcfc #000000 #000000;
#X obj 1946 1097 bng 19 250 50 0 empty empty empty 0 -10 0 12 #fcfcfc #000000 #000000;
#X obj 2056 1097 bng 19 250 50 0 empty empty empty 0 -10 0 12 #fcfcfc #000000 #000000;
#X obj 2176 1097 bng 19 250 50 0 empty empty empty 0 -10 0 12 #fcfcfc #000000 #000000;
#X obj 2295 1097 bng 19 250 50 0 empty empty empty 0 -10 0 12 #fcfcfc #000000 #000000;
#X obj 2415 1097 bng 19 250 50 0 empty empty empty 0 -10 0 12 #fcfcfc #000000 #000000;
#X obj 1652 1073 receive Nine;
#X obj 1743 1073 receive Ten;
#X obj 1833 1073 receive Eleven;
#X obj 1946 1073 receive Twelve;
#X obj 2056 1073 receive Thirteen;
#X obj 2176 1073 receive Fourteen;
#X obj 2295 1073 receive Fifteen;
#X obj 2415 1073 receive Sixteen;
#X obj 872 1175 spigot;
#X obj 805 1156 tgl 19 0 empty empty empty 0 -10 0 12 #fcfcfc #000000 #000000 0 1;
#X text 763 1159 MUTE;
#X obj 1352 1768 send bassD_l;
#X obj 1476 1768 send bassA_s;
#X floatatom 285 1998 5 0 0 0 - - - 0;
#X obj 285 2053 phasor~;
#X obj 160 2178 throw~ \$0-output;
#X obj 285 1968 mtof;
#X floatatom 285 1937 5 0 0 0 - - - 0;
#X obj 160 2121 *~;
#X obj 159 1966 vline~;
#X obj 285 2077 lop~ 1000;
#X obj 285 2101 lop~ 1000;
#X msg 159 1937 1 150 \, 0 400 100;
#X obj 159 1877 receive bassD_l;
#X floatatom 647 2012 5 0 0 0 - - - 0;
#X obj 647 2067 phasor~;
#X obj 522 2190 throw~ \$0-output;
#X obj 647 1982 mtof;
#X floatatom 647 1951 5 0 0 0 - - - 0;
#X obj 522 2133 *~;
#X obj 521 1980 vline~;
#X obj 647 2091 lop~ 1000;
#X obj 647 2115 lop~ 1000;
#X msg 521 1951 1 15 \, 0 50 75;
#X obj 521 1890 receive bassD_s;
#X floatatom 288 2363 5 0 0 0 - - - 0;
#X obj 288 2418 phasor~;
#X obj 163 2541 throw~ \$0-output;
#X obj 288 2333 mtof;
#X floatatom 288 2302 5 0 0 0 - - - 0;
#X obj 163 2484 *~;
#X obj 162 2331 vline~;
#X obj 288 2442 lop~ 1000;
#X obj 288 2466 lop~ 1000;
#X msg 162 2302 1 15 \, 0 50 75;
#X obj 162 2250 receive bassA_s;
#X obj 1775 1593 receive Fifteen;
#X obj 1775 1768 send bassD_l;
#X obj 873 1263 receive One;
#X obj 873 1287 bng 19 250 50 0 empty empty empty 0 -10 0 12 #fcfcfc #000000 #000000;
#X obj 963 1287 bng 19 250 50 0 empty empty empty 0 -10 0 12 #fcfcfc #000000 #000000;
#X obj 1053 1287 bng 19 250 50 0 empty empty empty 0 -10 0 12 #fcfcfc #000000 #000000;
#X obj 1156 1287 bng 19 250 50 0 empty empty empty 0 -10 0 12 #fcfcfc #000000 #000000;
#X obj 1256 1287 bng 19 250 50 0 empty empty empty 0 -10 0 12 #fcfcfc #000000 #000000;
#X obj 1356 1287 bng 19 250 50 0 empty empty empty 0 -10 0 12 #fcfcfc #000000 #000000;
#X obj 963 1263 receive Two;
#X obj 1053 1263 receive Three;
#X obj 1156 1263 receive Four;
#X obj 1256 1263 receive Five;
#X obj 1356 1263 receive Six;
#X obj 1445 1287 bng 19 250 50 0 empty empty empty 0 -10 0 12 #fcfcfc #000000 #000000;
#X obj 1545 1287 bng 19 250 50 0 empty empty empty 0 -10 0 12 #fcfcfc #000000 #000000;
#X obj 1445 1263 receive Seven;
#X obj 1545 1263 receive Eight;
#X obj 1653 1287 bng 19 250 50 0 empty empty empty 0 -10 0 12 #fcfcfc #000000 #000000;
#X obj 1743 1287 bng 19 250 50 0 empty empty empty 0 -10 0 12 #fcfcfc #000000 #000000;
#X obj 1833 1287 bng 19 250 50 0 empty empty empty 0 -10 0 12 #fcfcfc #000000 #000000;
#X obj 1946 1287 bng 19 250 50 0 empty empty empty 0 -10 0 12 #fcfcfc #000000 #000000;
#X obj 2056 1287 bng 19 250 50 0 empty empty empty 0 -10 0 12 #fcfcfc #000000 #000000;
#X obj 2176 1287 bng 19 250 50 0 empty empty empty 0 -10 0 12 #fcfcfc #000000 #000000;
#X obj 2295 1287 bng 19 250 50 0 empty empty empty 0 -10 0 12 #fcfcfc #000000 #000000;
#X obj 2415 1287 bng 19 250 50 0 empty empty empty 0 -10 0 12 #fcfcfc #000000 #000000;
#X obj 1652 1263 receive Nine;
#X obj 1743 1263 receive Ten;
#X obj 1833 1263 receive Eleven;
#X obj 1946 1263 receive Twelve;
#X obj 2056 1263 receive Thirteen;
#X obj 2176 1263 receive Fourteen;
#X obj 2295 1263 receive Fifteen;
#X obj 2415 1263 receive Sixteen;
#X obj 872 1365 spigot;
#X obj 805 1346 tgl 19 0 empty empty empty 0 -10 0 12 #fcfcfc #000000 #000000 0 1;
#X text 763 1349 MUTE;
#X obj 872 1408 send melody;
#X msg 128 898 0.75 \, 0 100;
#X floatatom 653 966 5 0 0 0 - - - 0;
#X obj 653 991 phasor~;
#X obj 528 1114 throw~ \$0-output;
#X obj 653 936 mtof;
#X floatatom 653 905 5 0 0 0 - - - 0;
#X obj 528 1057 *~;
#X obj 527 934 vline~;
#X obj 653 1039 lop~ 1000;
#X obj 653 1015 bp~ 5000;
#X obj 527 845 receive melody;
#X msg 527 905 0.8 15 \, 0 50 75;
#X obj 1403 389 % 32;
#X obj 1403 413 + 1;
#X obj 875 538 tgl 19 0 empty empty empty 0 -10 0 12 #fcfcfc #000000 #000000 0 1;
#X obj 873 1433 receive One;
#X obj 873 1457 bng 19 250 50 0 empty empty empty 0 -10 0 12 #fcfcfc #000000 #000000;
#X obj 963 1457 bng 19 250 50 0 empty empty empty 0 -10 0 12 #fcfcfc #000000 #000000;
#X obj 1053 1457 bng 19 250 50 0 empty empty empty 0 -10 0 12 #fcfcfc #000000 #000000;
#X obj 1156 1457 bng 19 250 50 0 empty empty empty 0 -10 0 12 #fcfcfc #000000 #000000;
#X obj 1256 1457 bng 19 250 50 0 empty empty empty 0 -10 0 12 #fcfcfc #000000 #000000;
#X obj 1356 1457 bng 19 250 50 0 empty empty empty 0 -10 0 12 #fcfcfc #000000 #000000;
#X obj 963 1433 receive Two;
#X obj 1053 1433 receive Three;
#X obj 1156 1433 receive Four;
#X obj 1256 1433 receive Five;
#X obj 1356 1433 receive Six;
#X obj 1445 1457 bng 19 250 50 0 empty empty empty 0 -10 0 12 #fcfcfc #000000 #000000;
#X obj 1545 1457 bng 19 250 50 0 empty empty empty 0 -10 0 12 #fcfcfc #000000 #000000;
#X obj 1445 1433 receive Seven;
#X obj 1545 1433 receive Eight;
#X obj 1653 1457 bng 19 250 50 0 empty empty empty 0 -10 0 12 #fcfcfc #000000 #000000;
#X obj 1743 1457 bng 19 250 50 0 empty empty empty 0 -10 0 12 #fcfcfc #000000 #000000;
#X obj 1833 1457 bng 19 250 50 0 empty empty empty 0 -10 0 12 #fcfcfc #000000 #000000;
#X obj 1946 1457 bng 19 250 50 0 empty empty empty 0 -10 0 12 #fcfcfc #000000 #000000;
#X obj 2056 1457 bng 19 250 50 0 empty empty empty 0 -10 0 12 #fcfcfc #000000 #000000;
#X obj 2176 1457 bng 19 250 50 0 empty empty empty 0 -10 0 12 #fcfcfc #000000 #000000;
#X obj 2295 1457 bng 19 250 50 0 empty empty empty 0 -10 0 12 #fcfcfc #000000 #000000;
#X obj 2415 1457 bng 19 250 50 0 empty empty empty 0 -10 0 12 #fcfcfc #000000 #000000;
#X obj 1652 1433 receive Nine;
#X obj 1743 1433 receive Ten;
#X obj 1833 1433 receive Eleven;
#X obj 1946 1433 receive Twelve;
#X obj 2056 1433 receive Thirteen;
#X obj 2176 1433 receive Fourteen;
#X obj 2295 1433 receive Fifteen;
#X obj 2415 1433 receive Sixteen;
#X obj 872 1515 spigot;
#X obj 805 1496 tgl 19 1 empty empty empty 0 -10 0 12 #fcfcfc #000000 #000000 0 1;
#X text 763 1499 MUTE;
#X obj 872 1558 send melody2;
#X obj 875 562 s Mute;
#X obj 805 1300 r Mute;
#X connect 0 0 1 0;
#X connect 2 0 3 0;
#X connect 3 0 4 0;
#X connect 4 0 5 1;
#X connect 5 0 9 0;
#X connect 6 0 5 0;
#X connect 6 0 7 0;
#X connect 7 0 8 0;
#X connect 8 0 11 0;
#X connect 9 0 12 0;
#X connect 10 0 8 0;
#X connect 11 0 12 0;
#X connect 12 0 13 0;
#X connect 12 0 14 0;
#X connect 13 0 12 1;
#X connect 14 0 69 0;
#X connect 14 0 339 0;
#X connect 15 0 16 0;
#X connect 16 0 17 0;
#X connect 16 0 18 0;
#X connect 16 0 26 0;
#X connect 16 0 27 0;
#X connect 16 0 28 0;
#X connect 16 0 29 0;
#X connect 16 0 41 0;
#X connect 16 0 43 0;
#X connect 16 0 53 0;
#X connect 16 0 54 0;
#X connect 16 0 55 0;
#X connect 16 0 56 0;
#X connect 16 0 57 0;
#X connect 16 0 58 0;
#X connect 16 0 59 0;
#X connect 16 0 60 0;
#X connect 17 0 19 0;
#X connect 17 0 341 0;
#X connect 18 0 21 0;
#X connect 19 0 20 0;
#X connect 21 0 30 0;
#X connect 22 0 31 0;
#X connect 23 0 32 0;
#X connect 24 0 33 0;
#X connect 25 0 34 0;
#X connect 26 0 22 0;
#X connect 27 0 23 0;
#X connect 28 0 24 0;
#X connect 29 0 25 0;
#X connect 36 0 115 0;
#X connect 37 0 108 0;
#X connect 39 0 42 0;
#X connect 40 0 44 0;
#X connect 41 0 39 0;
#X connect 43 0 40 0;
#X connect 45 0 61 0;
#X connect 46 0 62 0;
#X connect 47 0 63 0;
#X connect 48 0 64 0;
#X connect 49 0 65 0;
#X connect 50 0 66 0;
#X connect 51 0 67 0;
#X connect 52 0 68 0;
#X connect 53 0 45 0;
#X connect 54 0 46 0;
#X connect 55 0 47 0;
#X connect 56 0 48 0;
#X connect 57 0 49 0;
#X connect 58 0 50 0;
#X connect 59 0 51 0;
#X connect 60 0 52 0;
#X connect 69 0 15 0;
#X connect 71 0 327 0;
#X connect 73 0 74 0;
#X connect 74 0 85 0;
#X connect 75 0 85 0;
#X connect 76 0 85 0;
#X connect 77 0 75 0;
#X connect 78 0 76 0;
#X connect 79 0 85 0;
#X connect 80 0 85 0;
#X connect 81 0 85 0;
#X connect 82 0 79 0;
#X connect 83 0 80 0;
#X connect 84 0 81 0;
#X connect 85 0 90 0;
#X connect 86 0 85 1;
#X connect 92 0 93 0;
#X connect 93 0 97 0;
#X connect 94 0 100 0;
#X connect 95 0 94 0;
#X connect 96 0 101 0;
#X connect 97 0 173 0;
#X connect 98 0 97 1;
#X connect 98 0 100 1;
#X connect 98 0 101 1;
#X connect 98 0 159 1;
#X connect 98 0 165 1;
#X connect 98 0 166 1;
#X connect 98 0 169 1;
#X connect 98 0 167 1;
#X connect 100 0 174 0;
#X connect 101 0 176 0;
#X connect 102 0 103 0;
#X connect 103 0 104 0;
#X connect 103 0 104 1;
#X connect 105 0 106 0;
#X connect 106 0 107 0;
#X connect 108 0 109 0;
#X connect 109 0 110 0;
#X connect 110 0 139 0;
#X connect 111 0 112 0;
#X connect 112 0 114 0;
#X connect 114 0 138 0;
#X connect 115 0 116 0;
#X connect 115 1 124 0;
#X connect 116 0 117 0;
#X connect 117 0 118 0;
#X connect 118 0 119 0;
#X connect 119 0 120 0;
#X connect 120 0 130 0;
#X connect 121 0 119 1;
#X connect 122 0 123 0;
#X connect 123 0 125 0;
#X connect 124 0 122 0;
#X connect 125 0 120 1;
#X connect 126 0 127 0;
#X connect 127 0 128 0;
#X connect 128 0 125 1;
#X connect 130 0 129 0;
#X connect 131 0 132 0;
#X connect 132 0 133 0;
#X connect 133 0 134 0;
#X connect 135 0 136 0;
#X connect 136 0 137 0;
#X connect 137 0 133 1;
#X connect 138 0 113 0;
#X connect 139 0 111 0;
#X connect 140 0 141 0;
#X connect 141 0 147 0;
#X connect 143 0 140 0;
#X connect 144 0 143 0;
#X connect 145 0 142 0;
#X connect 146 0 145 0;
#X connect 147 0 148 0;
#X connect 148 0 145 1;
#X connect 149 0 150 0;
#X connect 150 0 156 0;
#X connect 152 0 149 0;
#X connect 153 0 152 0;
#X connect 154 0 151 0;
#X connect 155 0 154 0;
#X connect 156 0 157 0;
#X connect 157 0 154 1;
#X connect 158 0 159 0;
#X connect 159 0 175 0;
#X connect 160 0 158 0;
#X connect 161 0 96 0;
#X connect 162 0 165 0;
#X connect 163 0 166 0;
#X connect 164 0 167 0;
#X connect 165 0 254 0;
#X connect 166 0 255 0;
#X connect 167 0 290 0;
#X connect 168 0 169 0;
#X connect 169 0 177 0;
#X connect 170 0 162 0;
#X connect 171 0 163 0;
#X connect 172 0 168 0;
#X connect 178 0 179 0;
#X connect 179 0 185 0;
#X connect 181 0 178 0;
#X connect 182 0 181 0;
#X connect 183 0 180 0;
#X connect 184 0 183 0;
#X connect 185 0 186 0;
#X connect 186 0 183 1;
#X connect 187 0 200 0;
#X connect 188 0 203 0;
#X connect 189 0 201 0;
#X connect 190 0 191 0;
#X connect 191 0 197 0;
#X connect 193 0 190 0;
#X connect 194 0 193 0;
#X connect 195 0 192 0;
#X connect 196 0 195 0;
#X connect 197 0 198 0;
#X connect 198 0 195 1;
#X connect 199 0 202 0;
#X connect 200 0 146 0;
#X connect 201 0 155 0;
#X connect 202 0 196 0;
#X connect 203 0 184 0;
#X connect 204 0 205 0;
#X connect 205 0 216 0;
#X connect 206 0 216 0;
#X connect 207 0 206 0;
#X connect 208 0 216 0;
#X connect 209 0 208 0;
#X connect 210 0 216 0;
#X connect 211 0 216 0;
#X connect 212 0 216 0;
#X connect 213 0 210 0;
#X connect 214 0 211 0;
#X connect 215 0 212 0;
#X connect 216 0 88 0;
#X connect 217 0 216 1;
#X connect 219 0 220 0;
#X connect 220 0 251 0;
#X connect 221 0 251 0;
#X connect 222 0 251 0;
#X connect 223 0 251 0;
#X connect 224 0 251 0;
#X connect 225 0 251 0;
#X connect 226 0 221 0;
#X connect 227 0 222 0;
#X connect 228 0 223 0;
#X connect 229 0 224 0;
#X connect 230 0 225 0;
#X connect 231 0 251 0;
#X connect 232 0 251 0;
#X connect 233 0 231 0;
#X connect 234 0 232 0;
#X connect 235 0 251 0;
#X connect 236 0 251 0;
#X connect 237 0 251 0;
#X connect 238 0 251 0;
#X connect 239 0 251 0;
#X connect 240 0 251 0;
#X connect 241 0 251 0;
#X connect 242 0 251 0;
#X connect 243 0 235 0;
#X connect 244 0 236 0;
#X connect 245 0 237 0;
#X connect 246 0 238 0;
#X connect 247 0 239 0;
#X connect 248 0 240 0;
#X connect 249 0 241 0;
#X connect 250 0 242 0;
#X connect 251 0 89 0;
#X connect 252 0 251 1;
#X connect 256 0 257 0;
#X connect 257 0 263 0;
#X connect 259 0 256 0;
#X connect 260 0 259 0;
#X connect 261 0 258 0;
#X connect 262 0 261 0;
#X connect 263 0 264 0;
#X connect 264 0 261 1;
#X connect 265 0 262 0;
#X connect 266 0 265 0;
#X connect 267 0 268 0;
#X connect 268 0 274 0;
#X connect 270 0 267 0;
#X connect 271 0 270 0;
#X connect 272 0 269 0;
#X connect 273 0 272 0;
#X connect 274 0 275 0;
#X connect 275 0 272 1;
#X connect 276 0 273 0;
#X connect 277 0 276 0;
#X connect 278 0 279 0;
#X connect 279 0 285 0;
#X connect 281 0 278 0;
#X connect 282 0 281 0;
#X connect 283 0 280 0;
#X connect 284 0 283 0;
#X connect 285 0 286 0;
#X connect 286 0 283 1;
#X connect 287 0 284 0;
#X connect 288 0 287 0;
#X connect 289 0 164 0;
#X connect 291 0 292 0;
#X connect 292 0 323 0;
#X connect 293 0 323 0;
#X connect 294 0 323 0;
#X connect 295 0 323 0;
#X connect 296 0 323 0;
#X connect 297 0 323 0;
#X connect 298 0 293 0;
#X connect 299 0 294 0;
#X connect 300 0 295 0;
#X connect 301 0 296 0;
#X connect 302 0 297 0;
#X connect 303 0 323 0;
#X connect 304 0 323 0;
#X connect 305 0 303 0;
#X connect 306 0 304 0;
#X connect 307 0 323 0;
#X connect 308 0 323 0;
#X connect 309 0 323 0;
#X connect 310 0 323 0;
#X connect 311 0 323 0;
#X connect 312 0 323 0;
#X connect 313 0 323 0;
#X connect 314 0 323 0;
#X connect 315 0 307 0;
#X connect 316 0 308 0;
#X connect 317 0 309 0;
#X connect 318 0 310 0;
#X connect 319 0 311 0;
#X connect 320 0 312 0;
#X connect 321 0 313 0;
#X connect 322 0 314 0;
#X connect 323 0 326 0;
#X connect 324 0 323 1;
#X connect 327 0 131 0;
#X connect 328 0 329 0;
#X connect 329 0 336 0;
#X connect 331 0 328 0;
#X connect 332 0 331 0;
#X connect 333 0 330 0;
#X connect 334 0 333 0;
#X connect 335 0 333 1;
#X connect 336 0 335 0;
#X connect 337 0 338 0;
#X connect 338 0 334 0;
#X connect 339 0 340 0;
#X connect 341 0 378 0;
#X connect 342 0 343 0;
#X connect 343 0 374 0;
#X connect 344 0 374 0;
#X connect 345 0 374 0;
#X connect 346 0 374 0;
#X connect 347 0 374 0;
#X connect 348 0 374 0;
#X connect 349 0 344 0;
#X connect 350 0 345 0;
#X connect 351 0 346 0;
#X connect 352 0 347 0;
#X connect 353 0 348 0;
#X connect 354 0 374 0;
#X connect 355 0 374 0;
#X connect 356 0 354 0;
#X connect 357 0 355 0;
#X connect 358 0 374 0;
#X connect 359 0 374 0;
#X connect 360 0 374 0;
#X connect 361 0 374 0;
#X connect 362 0 374 0;
#X connect 363 0 374 0;
#X connect 364 0 374 0;
#X connect 365 0 374 0;
#X connect 366 0 358 0;
#X connect 367 0 359 0;
#X connect 368 0 360 0;
#X connect 369 0 361 0;
#X connect 370 0 362 0;
#X connect 371 0 363 0;
#X connect 372 0 364 0;
#X connect 373 0 365 0;
#X connect 374 0 377 0;
#X connect 375 0 374 1;
#X connect 379 0 324 0;
#X connect 379 0 375 0;
